<svg xmlns="http://www.w3.org/2000/svg" viewBox="0 0 1600 1000" role="img" aria-label="Modern bay-area city lounge social">
  <defs><linearGradient id="g" x1="0" y1="0" x2="1" y2="1"><stop stop-color="#0d2224"/><stop offset=".48" stop-color="#315e69"/><stop offset="1" stop-color="#d4a847"/></linearGradient></defs>
  <rect width="1600" height="1000" fill="url(#g)"/><path d="M0 690h1600v310H0z" fill="#090806" opacity=".64"/><path d="M160 575c270-95 420-95 650-28 230 66 390 64 630-20" fill="none" stroke="#f5f0e8" stroke-width="14" opacity=".2"/><path d="M360 575c60-140 145-220 260-255M1240 565c-68-132-150-210-250-245M610 340h380" stroke="#f5f0e8" stroke-width="14" opacity=".17" fill="none" stroke-linecap="round"/><circle cx="640" cy="630" r="48" fill="#f5f0e8" opacity=".14"/><circle cx="795" cy="620" r="54" fill="#f5f0e8" opacity=".14"/><circle cx="1020" cy="636" r="48" fill="#f5f0e8" opacity=".13"/><path d="M510 828c92-152 260-152 350 0M885 828c76-145 230-145 306 0" fill="none" stroke="#f5f0e8" stroke-width="21" opacity=".25" stroke-linecap="round"/>
</svg>
