<svg xmlns="http://www.w3.org/2000/svg" viewBox="0 0 1600 1000" role="img" aria-label="City rooftop upscale indoor mixer">
  <defs><linearGradient id="g" x1="0" y1="0" x2="1" y2="1"><stop stop-color="#101820"/><stop offset=".5" stop-color="#2e3c4e"/><stop offset="1" stop-color="#e8503a"/></linearGradient></defs>
  <rect width="1600" height="1000" fill="url(#g)"/><path d="M0 670h1600v330H0z" fill="#090806" opacity=".7"/><path d="M140 680h120V420h80v260h110V320h118v360h96V500h90v180h124V360h126v320h98V455h110v225h118V390h130v290" fill="#11100f" opacity=".8"/><path d="M260 705h1080" stroke="#d4a847" stroke-width="10" opacity=".25" stroke-linecap="round"/><circle cx="610" cy="630" r="48" fill="#f5f0e8" opacity=".15"/><circle cx="755" cy="620" r="54" fill="#f5f0e8" opacity=".14"/><circle cx="990" cy="638" r="48" fill="#f5f0e8" opacity=".13"/><path d="M480 828c92-154 262-154 354 0M868 828c76-145 230-145 306 0" fill="none" stroke="#f5f0e8" stroke-width="21" opacity=".25" stroke-linecap="round"/>
</svg>
