<svg xmlns="http://www.w3.org/2000/svg" viewBox="0 0 1600 1000" role="img" aria-label="Outdoor patio music lounge social">
  <defs><linearGradient id="g" x1="0" y1="0" x2="1" y2="1"><stop stop-color="#12251d"/><stop offset=".52" stop-color="#98672c"/><stop offset="1" stop-color="#e8503a"/></linearGradient></defs>
  <rect width="1600" height="1000" fill="url(#g)"/><path d="M0 725h1600v275H0z" fill="#090806" opacity=".64"/><path d="M170 260c250 72 559 72 1260-12" fill="none" stroke="#f5f0e8" stroke-width="10" opacity=".28"/><g fill="#f5f0e8" opacity=".38"><circle cx="220" cy="275" r="17"/><circle cx="410" cy="292" r="17"/><circle cx="620" cy="294" r="17"/><circle cx="860" cy="280" r="17"/><circle cx="1110" cy="260" r="17"/><circle cx="1370" cy="233" r="17"/></g><path d="M210 690h1180" stroke="#f5f0e8" opacity=".18" stroke-width="18" stroke-linecap="round"/><circle cx="500" cy="625" r="46" fill="#f5f0e8" opacity=".16"/><circle cx="610" cy="638" r="52" fill="#f5f0e8" opacity=".13"/><circle cx="1000" cy="620" r="48" fill="#f5f0e8" opacity=".15"/><path d="M370 810c90-155 270-148 340-5M855 810c92-158 280-150 358 0" fill="none" stroke="#f5f0e8" stroke-width="20" opacity=".26" stroke-linecap="round"/>
</svg>
